<?xml version="1.0" encoding="UTF-8"?>
<svg id="Layer_2" data-name="Layer 2" xmlns="http://www.w3.org/2000/svg" viewBox="0 0 193.59 59.79">
  <defs>
    <style>
      .cls-1 {
        fill: #ffcd46;
      }

      .cls-2 {
        fill: #e6e6e6;
      }
    </style>
  </defs>
  <g id="Camada_1" data-name="Camada 1">
    <g>
      <path class="cls-2" d="M47.71,49.35h-9.86l12.81-37.96h12.21l12.81,37.96h-9.86l-8.92-28.4h-.3l-8.9,28.4ZM46.4,34.41h20.61v6.97h-20.61v-6.97ZM87.27,11.39v37.96h-9.06V11.39h9.06ZM100.54,11.39v37.96h-9.06V11.39h9.06ZM104.74,49.35V11.39h15.68c2.84,0,5.3.51,7.36,1.54,2.08,1.01,3.68,2.47,4.8,4.37,1.13,1.89,1.69,4.13,1.69,6.73s-.57,4.87-1.72,6.71c-1.15,1.83-2.78,3.23-4.89,4.19-2.11.95-4.62,1.43-7.51,1.43h-9.92v-7.23h8.21c1.38,0,2.54-.18,3.47-.54.94-.37,1.65-.93,2.13-1.67.48-.75.72-1.72.72-2.89s-.24-2.14-.72-2.91c-.48-.78-1.19-1.36-2.13-1.74-.94-.4-2.09-.59-3.47-.59h-4.52v30.57h-9.18ZM126.11,32l9.45,17.35h-10.01l-9.27-17.35h9.82ZM150.46,49.35c-2.99,0-5.56-.59-7.71-1.78-2.14-1.2-3.79-2.86-4.95-4.99-1.15-2.14-1.72-4.63-1.72-7.45s.57-5.32,1.72-7.45c1.16-2.14,2.81-3.81,4.95-4.99,2.15-1.2,4.72-1.8,7.71-1.8s5.55.6,7.69,1.8c2.15,1.19,3.8,2.85,4.95,4.99,1.16,2.13,1.74,4.62,1.74,7.45s-.58,5.31-1.74,7.45c-1.15,2.13-2.8,3.8-4.95,4.99-2.14,1.19-4.7,1.78-7.69,1.78ZM150.52,43.05c1.09,0,2.01-.33,2.76-1,.75-.67,1.33-1.59,1.72-2.78.41-1.19.61-2.56.61-4.11s-.2-2.97-.61-4.15c-.4-1.19-.97-2.11-1.72-2.78-.75-.67-1.67-1-2.76-1s-2.08.33-2.85,1c-.77.67-1.35,1.59-1.76,2.78-.4,1.19-.59,2.57-.59,4.15s.2,2.93.59,4.11c.41,1.19.99,2.11,1.76,2.78.78.67,1.73,1,2.85,1ZM174.61,20.88l4.69,9.38,4.86-9.38h9.14l-7.95,14.24,8.25,14.24h-9.06l-5.23-9.45-5.1,9.45h-9.19l8.27-14.24-7.86-14.24h9.19Z"/>
      <polygon class="cls-1" points="15.13 47.64 19.85 31.04 23.48 31.04 20.35 42.01 37.9 23.12 22.14 23.13 28.69 .01 8.83 0 0 31.04 8.36 31.04 14.95 7.94 18.6 7.94 3.85 59.79 15.13 47.64"/>
    </g>
  </g>
</svg>